<svg width="70" height="70" viewBox="0 0 70 70" fill="none" xmlns="http://www.w3.org/2000/svg">
<path d="M20.1689 6.40526H63.4303C67.0765 6.40526 70 9.32877 70 12.975V52.3931C70 53.5099 69.7372 54.5611 69.2445 55.4808L63.4303 49.6666V32.684H46.4477L33.3083 19.5446H63.4303V12.975H26.7386L20.1689 6.40526ZM65.0399 69.8356L54.1342 58.9627H10.8728C7.22665 58.9627 4.30314 56.0392 4.30314 52.3931L4.33599 12.975C4.33599 11.8581 4.59878 10.807 5.09151 9.92005L0 4.79569L4.63163 0.164062L69.6715 65.2039L65.0399 69.8356ZM10.8728 15.7014V19.5446H14.7161L10.8728 15.7014ZM47.5645 52.3931L27.8555 32.684H10.8728V52.3931H47.5645Z" fill="#003733"/>
</svg>
