<svg width="70" height="57" viewBox="0 0 70 57" fill="none" xmlns="http://www.w3.org/2000/svg">
<path d="M0.128708 25.2741C1.49393 10.5367 14.8311 0 29.5335 0C30.1986 0 30.8637 0.0350056 31.5288 0.0700112C70 2.59042 70 46.2075 70 46.2075V49.0079C70 52.8585 66.8495 56.009 62.9989 56.009H27.9932C11.6456 56.009 -1.44654 41.9718 0.128708 25.2741ZM58.5882 26.4643C56.5928 21.9485 54.1074 18.2379 51.0969 15.2975L38.4249 20.6533C36.3246 21.5285 34.9943 23.5588 34.9943 25.8342C34.9943 28.9497 37.5147 31.4701 40.6303 31.4701H60.4785C59.9534 29.8598 59.3583 28.1796 58.5882 26.4643ZM12.4507 42.1468C16.4413 46.5225 22.1123 49.0079 27.9932 49.0079H62.9989V46.2075C62.9989 46.1375 62.9639 42.9869 62.1587 38.5062H40.6303C33.6641 38.5062 27.9932 32.8353 27.9932 25.8692C27.9932 20.7934 31.0387 16.2076 35.6945 14.2473L44.4459 10.5367C40.5952 8.54138 36.1495 7.38619 31.0737 7.07114C30.5486 7.00113 30.0235 7.00113 29.5335 7.00113C17.9466 7.00113 8.07499 15.2975 7.09484 25.9392C6.53474 31.9602 8.42505 37.7011 12.4507 42.1468Z" fill="#003733"/>
</svg>
