<svg width="70" height="70" viewBox="0 0 70 70" fill="none" xmlns="http://www.w3.org/2000/svg">
<path d="M20.1689 6.3662H63.4303C67.0765 6.3662 70 9.28971 70 12.9359V52.354C70 53.4708 69.7372 54.522 69.2445 55.4418L63.4303 49.6276V32.6449H46.4477L33.3083 19.5056H63.4303V12.9359H26.7386L20.1689 6.3662ZM65.0399 69.7965L54.1342 58.9237H10.8728C7.22665 58.9237 4.30314 56.0002 4.30314 52.354L4.33599 12.9359C4.33599 11.819 4.59878 10.7679 5.09151 9.88098L0 4.75663L4.63163 0.125L69.6715 65.1649L65.0399 69.7965ZM10.8728 15.6623V19.5056H14.7161L10.8728 15.6623ZM47.5645 52.354L27.8555 32.6449H10.8728V52.354H47.5645Z" fill="#003733"/>
</svg>
