<svg width="71" height="58" viewBox="0 0 71 58" fill="none" xmlns="http://www.w3.org/2000/svg">
<path d="M0.628709 26.2697C1.99394 11.5323 15.3311 0.995605 30.0335 0.995605C30.6986 0.995605 31.3637 1.03061 32.0288 1.06562C70.5 3.58602 70.5 47.2031 70.5 47.2031V50.0035C70.5 53.8541 67.3495 57.0046 63.4989 57.0046H28.4932C12.1456 57.0046 -0.94654 42.9674 0.628709 26.2697ZM59.0882 27.4599C57.0928 22.9441 54.6074 19.2335 51.5969 16.2931L38.9249 21.6489C36.8246 22.5241 35.4943 24.5544 35.4943 26.8298C35.4943 29.9453 38.0147 32.4657 41.1303 32.4657H60.9785C60.4534 30.8554 59.8583 29.1752 59.0882 27.4599ZM12.9507 43.1424C16.9413 47.5181 22.6123 50.0035 28.4932 50.0035H63.4989V47.2031C63.4989 47.1331 63.4639 43.9825 62.6587 39.5018H41.1303C34.1641 39.5018 28.4932 33.8309 28.4932 26.8648C28.4932 21.789 31.5387 17.2032 36.1945 15.2429L44.9459 11.5323C41.0952 9.53699 36.6495 8.3818 31.5737 8.06675C31.0486 7.99674 30.5235 7.99674 30.0335 7.99674C18.4466 7.99674 8.57499 16.2931 7.59484 26.9348C7.03475 32.9558 8.92505 38.6967 12.9507 43.1424Z" fill="#003733"/>
</svg>
